<?xml version="1.0" standalone="no"?>
<!DOCTYPE svg PUBLIC "-//W3C//DTD SVG 20010904//EN"
 "http://www.w3.org/TR/2001/REC-SVG-20010904/DTD/svg10.dtd">
<svg version="1.0" xmlns="http://www.w3.org/2000/svg"
 width="200.000000pt" height="200.000000pt" viewBox="0 0 200.000000 200.000000"
 preserveAspectRatio="xMidYMid meet">

<g transform="translate(0.000000,200.000000) scale(0.100000,-0.100000)"
fill="#000000" stroke="none">
<path d="M634 1367 c-17 -19 12 -43 32 -27 11 10 12 16 3 26 -14 17 -21 17
-35 1z"/>
<path d="M418 1247 c-65 -18 -118 -37 -118 -43 0 -6 12 -29 26 -50 l26 -38
-32 -29 c-29 -26 -31 -31 -21 -54 6 -14 25 -30 41 -36 35 -13 37 -22 10 -62
-26 -40 -26 -42 16 -50 50 -9 31 -23 -36 -28 -30 -2 6 -4 81 -5 152 -2 154 -3
165 -70 6 -40 6 -42 -20 -42 -18 0 -26 -5 -25 -17 0 -11 3 -13 6 -5 2 6 16 12
29 12 23 0 28 -9 27 -47 -1 -7 10 -13 24 -13 18 0 23 4 19 18 -6 20 -36 151
-36 158 0 2 16 4 35 4 33 0 34 -1 29 -30 -7 -34 15 -75 45 -85 22 -7 33 -28
25 -50 -9 -24 -32 -18 -48 13 l-15 27 -1 -30 c0 -27 3 -30 35 -32 27 -2 38 2
51 22 22 34 12 67 -31 99 -38 29 -45 53 -18 63 11 4 23 -3 38 -21 l22 -27 -5
30 c-4 28 -8 31 -42 31 -21 0 -40 4 -42 9 -5 16 -128 19 -128 4 0 -7 -7 -13
-16 -13 -17 0 -17 -2 1 108 8 42 8 42 41 36 33 -6 33 -6 70 75 21 45 44 81 51
81 6 0 19 -10 27 -22 15 -22 16 -21 15 22 -1 38 -2 40 -8 16 l-6 -28 -19 21
c-11 12 -27 21 -37 21 -20 0 -56 -46 -45 -57 3 -3 6 -1 6 5 0 14 28 42 42 42
7 0 3 -10 -8 -22 -11 -13 -28 -42 -38 -65 -18 -41 -39 -59 -57 -47 -15 9 -10
27 6 20 15 -5 53 39 42 50 -3 3 -8 -4 -12 -15 -3 -12 -13 -21 -21 -21 -11 0
-14 18 -15 83 l-2 82 -7 -75 c-4 -43 -16 -93 -28 -115 -20 -41 -58 -82 -67
-73 -3 2 6 38 20 78 14 40 25 76 25 79 0 3 -22 -33 -48 -82 -53 -96 -65 -111
-81 -106 -7 3 12 44 45 99 31 52 60 104 65 115 l9 20 -12 -20 c-29 -45 -107
-113 -138 -120 -67 -15 -52 11 57 103 59 49 109 89 111 87 2 -2 -2 -14 -9 -27
-6 -12 -9 -21 -6 -18 9 8 57 80 57 85 0 8 -22 4 -142 -28z m93 -1 c-26 -31
-90 -67 -122 -68 -39 -1 -79 10 -79 21 0 7 164 56 199 60 10 1 11 -2 2 -13z
m5 -313 c-3 -10 -8 -30 -12 -45 -4 -19 -13 -28 -25 -28 -16 0 -18 5 -13 28 7
29 31 62 46 62 5 0 7 -8 4 -17z m-63 -53 c-6 -23 -43 -28 -43 -6 0 12 12 20
42 25 3 0 4 -8 1 -19z"/>
<path d="M610 1273 c72 -5 89 -12 104 -41 9 -15 15 -22 16 -16 0 6 -9 23 -21
38 -18 23 -26 26 -82 24 -51 -1 -54 -2 -17 -5z"/>
<path d="M572 970 c0 -14 2 -19 5 -12 2 6 2 18 0 25 -3 6 -5 1 -5 -13z"/>
<path d="M611 974 c0 -11 3 -14 6 -6 3 7 2 16 -1 19 -3 4 -6 -2 -5 -13z"/>
<path d="M624 921 c1 -16 46 -36 46 -21 0 6 -9 10 -19 10 -11 0 -21 6 -24 13
-3 8 -4 7 -3 -2z"/>
<path d="M541 914 c0 -11 3 -14 6 -6 3 7 2 16 -1 19 -3 4 -6 -2 -5 -13z"/>
<path d="M581 914 c0 -11 3 -14 6 -6 3 7 2 16 -1 19 -3 4 -6 -2 -5 -13z"/>
<path d="M551 814 c0 -11 3 -14 6 -6 3 7 2 16 -1 19 -3 4 -6 -2 -5 -13z"/>
<path d="M345 770 l-25 -50 95 0 95 0 0 50 c0 62 -14 65 -29 5 -7 -29 -17 -45
-27 -45 -12 0 -14 8 -8 46 9 60 -13 57 -35 -4 -13 -36 -19 -42 -43 -42 -33 0
-33 0 -8 50 11 22 18 40 15 40 -2 0 -16 -22 -30 -50z"/>
<path d="M812 792 c-16 -10 -29 -60 -24 -90 5 -30 45 -50 67 -32 21 17 19 29
-5 23 -25 -7 -45 34 -36 71 8 32 23 34 28 4 4 -27 28 -36 28 -11 0 34 -30 52
-58 35z"/>
<path d="M912 784 c-41 -28 -21 -124 26 -124 22 0 52 40 52 70 0 27 -29 70
-48 70 -4 0 -18 -7 -30 -16z m43 -49 c8 -53 -2 -77 -22 -50 -13 19 -18 87 -7
98 13 13 23 -4 29 -48z"/>
<path d="M1066 791 c-3 -4 -17 -6 -31 -3 -25 4 -25 3 -25 -57 0 -54 2 -61 20
-61 17 0 20 7 20 51 0 36 4 49 13 46 7 -2 12 -22 12 -50 0 -38 3 -47 18 -47
14 0 17 9 17 50 0 49 12 66 24 34 3 -9 6 -31 6 -50 0 -25 4 -34 16 -34 14 0
16 9 12 55 -5 64 -19 85 -43 65 -12 -10 -19 -10 -27 -2 -14 14 -25 15 -32 3z"/>
<path d="M542 770 c0 -14 2 -19 5 -12 2 6 2 18 0 25 -3 6 -5 1 -5 -13z"/>
<path d="M516 685 c-3 -9 0 -15 9 -15 9 0 12 6 9 15 -4 8 -7 15 -9 15 -2 0 -5
-7 -9 -15z"/>
</g>
</svg>
